<svg xmlns="http://www.w3.org/2000/svg" viewBox="0 0 46.85 119.49"><defs><style>.cls-1{fill:#6c6c6c;}</style></defs><g id="レイヤー_2" data-name="レイヤー 2"><g id="レイヤー_1-2" data-name="レイヤー 1"><path class="cls-1" d="M13.71,11.16V1.06A1.06,1.06,0,0,1,14.77,0H31.44A1.07,1.07,0,0,1,32.5,1.06V11.15A1.05,1.05,0,0,0,33,12l13.43,9.24a1.07,1.07,0,0,1,.46.88V50.62a1.08,1.08,0,0,1-.26.7l-5.3,6.11a1.07,1.07,0,0,0,0,1.39L46.59,65a1.06,1.06,0,0,1,.26.7v52.75a1.06,1.06,0,0,1-1.06,1.07H1.06A1.07,1.07,0,0,1,0,118.42V65.69A1,1,0,0,1,.28,65l5.65-6.12a1.06,1.06,0,0,0,0-1.45L.28,51.32A1.07,1.07,0,0,1,0,50.6V22.12a1.05,1.05,0,0,1,.44-.86L13.27,12A1.08,1.08,0,0,0,13.71,11.16Z"/></g></g></svg>