<svg xmlns="http://www.w3.org/2000/svg" viewBox="0 0 33.53 85.52"><defs><style>.cls-1{fill:#6c6c6c;}</style></defs><g id="レイヤー_2" data-name="レイヤー 2"><g id="レイヤー_1-2" data-name="レイヤー 1"><path class="cls-1" d="M9.81,7.83V1.06A1.05,1.05,0,0,1,10.87,0H22.2a1.05,1.05,0,0,1,1.06,1.06V7.82a1,1,0,0,0,.46.87l9.35,6.44a1,1,0,0,1,.46.87V36.12a1,1,0,0,1-.26.69l-3.55,4.1a1.06,1.06,0,0,0,0,1.38l3.56,4.13a1.08,1.08,0,0,1,.25.69V84.46a1.06,1.06,0,0,1-1.06,1.06H1.06A1.06,1.06,0,0,1,0,84.46V47.13a1.07,1.07,0,0,1,.28-.72l3.78-4.09a1.07,1.07,0,0,0,0-1.44L.28,36.82A1.09,1.09,0,0,1,0,36.1V16a1,1,0,0,1,.44-.86L9.37,8.69A1,1,0,0,0,9.81,7.83Z"/></g></g></svg>